<svg xmlns="http://www.w3.org/2000/svg" width="40.57mm" height="9.34mm" viewBox="0 0 115 26.47"><defs><style>.a{fill:#fff;}</style></defs><title>logo</title><path class="a" d="M24.79,23.11A5.78,5.78,0,0,1,22,28.29a9.65,9.65,0,0,1-3,1.21,16.65,16.65,0,0,1-3.67.39h-13V3.42H17.63a5.23,5.23,0,0,1,2.5.6A6.24,6.24,0,0,1,22,5.57a7.08,7.08,0,0,1,1.21,2.16,7.38,7.38,0,0,1,.43,2.48,7.17,7.17,0,0,1-1,3.56,6,6,0,0,1-2.85,2.55,7,7,0,0,1,3.6,2.33A7,7,0,0,1,24.79,23.11ZM9.54,9.61v4.06h5a2.4,2.4,0,0,0,1.36-.41,1.85,1.85,0,0,0,.62-1.64A2,2,0,0,0,16,10.08a1.79,1.79,0,0,0-1.23-.47Zm7.87,12A2.52,2.52,0,0,0,16.89,20a1.64,1.64,0,0,0-1.34-.65h-6v4.44h5.74a2.16,2.16,0,0,0,1.51-.56A2.05,2.05,0,0,0,17.41,21.61Z" transform="translate(-2.27 -3.42)"/><path class="a" d="M24.9,29.89,34.78,3.42h5.89l9.84,26.47H42.83l-1.6-5.18h-7l-1.57,5.18ZM37.73,11l-2.46,8.87h4.81Z" transform="translate(-2.27 -3.42)"/><path class="a" d="M72.5,29.89V15.95l-4.44,9.8H64.19l-4.44-9.8V29.89H52.49V3.42h7.94l5.7,12.45L71.87,3.42h7.9V29.89Z" transform="translate(-2.27 -3.42)"/><path class="a" d="M106.84,23.11a5.78,5.78,0,0,1-2.8,5.18,9.65,9.65,0,0,1-3,1.21,16.64,16.64,0,0,1-3.67.39h-13V3.42H99.68a5.23,5.23,0,0,1,2.5.6,6.25,6.25,0,0,1,1.9,1.55,7.1,7.1,0,0,1,1.21,2.16,7.4,7.4,0,0,1,.43,2.48,7.17,7.17,0,0,1-1,3.56,6,6,0,0,1-2.85,2.55,7,7,0,0,1,3.6,2.33A7,7,0,0,1,106.84,23.11ZM91.59,9.61v4.06h5a2.4,2.4,0,0,0,1.36-.41,1.85,1.85,0,0,0,.62-1.64A2,2,0,0,0,98,10.08a1.79,1.79,0,0,0-1.23-.47Zm7.87,12A2.52,2.52,0,0,0,98.93,20a1.64,1.64,0,0,0-1.34-.65h-6v4.44h5.74a2.16,2.16,0,0,0,1.51-.56A2.05,2.05,0,0,0,99.46,21.61Z" transform="translate(-2.27 -3.42)"/><path class="a" d="M110,29.89V3.42h7.27V29.89Z" transform="translate(-2.27 -3.42)"/></svg>